<svg width="21" height="21" viewBox="0 0 21 21" fill="none" xmlns="http://www.w3.org/2000/svg">
<path d="M14.6883 5.26455H6.31164C6.03393 5.26455 5.7676 5.37487 5.57124 5.57124C5.37487 5.7676 5.26455 6.03393 5.26455 6.31164V14.6883C5.26455 14.966 5.37487 15.2324 5.57124 15.4287C5.7676 15.6251 6.03393 15.7354 6.31164 15.7354H14.6883C14.966 15.7354 15.2324 15.6251 15.4287 15.4287C15.6251 15.2324 15.7354 14.966 15.7354 14.6883V6.31164C15.7354 6.03393 15.6251 5.7676 15.4287 5.57124C15.2324 5.37487 14.966 5.26455 14.6883 5.26455ZM13.6412 13.6412H7.35872V7.35872H13.6412V13.6412ZM19.9238 17.0757V3.92428C20.2069 3.76677 20.4497 3.54568 20.633 3.27842C20.8162 3.01117 20.9349 2.70503 20.9798 2.3841C21.0247 2.06318 20.9944 1.73622 20.8915 1.42895C20.7886 1.12169 20.6157 0.842505 20.3866 0.613369C20.1575 0.384233 19.8783 0.211398 19.571 0.108463C19.2637 0.005529 18.9368 -0.0246958 18.6159 0.0201673C18.2949 0.0650304 17.9888 0.183757 17.7215 0.367005C17.4543 0.550254 17.2332 0.793023 17.0757 1.07621H3.92428C3.76677 0.793023 3.54568 0.550254 3.27842 0.367005C3.01117 0.183757 2.70503 0.0650304 2.3841 0.0201673C2.06318 -0.0246958 1.73622 0.005529 1.42895 0.108463C1.12169 0.211398 0.842505 0.384233 0.613369 0.613369C0.384233 0.842505 0.211398 1.12169 0.108463 1.42895C0.005529 1.73622 -0.0246958 2.06318 0.0201673 2.3841C0.0650304 2.70503 0.183757 3.01117 0.367005 3.27842C0.550254 3.54568 0.793023 3.76677 1.07621 3.92428V17.0757C0.793023 17.2332 0.550254 17.4543 0.367005 17.7215C0.183757 17.9888 0.0650304 18.2949 0.0201673 18.6159C-0.0246958 18.9368 0.005529 19.2637 0.108463 19.571C0.211398 19.8783 0.384233 20.1575 0.613369 20.3866C0.842505 20.6157 1.12169 20.7886 1.42895 20.8915C1.73622 20.9944 2.06318 21.0247 2.3841 20.9798C2.70503 20.9349 3.01117 20.8162 3.27842 20.633C3.54568 20.4497 3.76677 20.2069 3.92428 19.9238H17.0757C17.2332 20.2069 17.4543 20.4497 17.7215 20.633C17.9888 20.8162 18.2949 20.9349 18.6159 20.9798C18.9368 21.0247 19.2637 20.9944 19.571 20.8915C19.8783 20.7886 20.1575 20.6157 20.3866 20.3866C20.6157 20.1575 20.7886 19.8783 20.8915 19.571C20.9944 19.2637 21.0247 18.9368 20.9798 18.6159C20.9349 18.2949 20.8162 17.9888 20.633 17.7215C20.4497 17.4543 20.2069 17.2332 19.9238 17.0757ZM17.8296 17.0757C17.5147 17.2541 17.2541 17.5147 17.0757 17.8296H3.92428C3.74583 17.5147 3.48527 17.2541 3.17038 17.0757V3.92428C3.48527 3.74583 3.74583 3.48527 3.92428 3.17038H17.0757C17.2541 3.48527 17.5147 3.74583 17.8296 3.92428V17.0757Z" fill="white"/>
</svg>
