<svg width="20" height="11" viewBox="0 0 20 11" fill="none" xmlns="http://www.w3.org/2000/svg">
<path d="M19.925 4.6264C19.8773 4.50359 19.8059 4.39139 19.7148 4.29623L15.7128 0.294238C15.6196 0.200953 15.5088 0.126956 15.3869 0.0764704C15.2651 0.0259849 15.1344 0 15.0025 0C14.7361 0 14.4805 0.105841 14.2921 0.294238C14.1037 0.482636 13.9979 0.738158 13.9979 1.00459C13.9979 1.27103 14.1037 1.52655 14.2921 1.71495L16.5933 4.00609H3.40671L5.70786 1.71495C5.80115 1.62166 5.87514 1.51092 5.92563 1.38903C5.97611 1.26715 6.0021 1.13652 6.0021 1.00459C6.0021 0.872668 5.97611 0.742035 5.92563 0.620152C5.87514 0.498269 5.80115 0.387524 5.70786 0.294238C5.61458 0.200953 5.50383 0.126956 5.38195 0.0764704C5.26006 0.0259849 5.12943 -9.82918e-10 4.99751 0C4.86558 9.82919e-10 4.73495 0.0259849 4.61307 0.0764704C4.49118 0.126956 4.38044 0.200953 4.28715 0.294238L0.285156 4.29623C0.19407 4.39139 0.122669 4.50359 0.0750509 4.6264C-0.025017 4.86998 -0.025017 5.1432 0.0750509 5.38678C0.122669 5.50959 0.19407 5.62179 0.285156 5.71694L4.28715 9.71894C4.38016 9.81271 4.49082 9.88715 4.61274 9.93794C4.73466 9.98873 4.86543 10.0149 4.99751 10.0149C5.12958 10.0149 5.26036 9.98873 5.38228 9.93794C5.50419 9.88715 5.61485 9.81271 5.70786 9.71894C5.80164 9.62593 5.87607 9.51527 5.92686 9.39335C5.97766 9.27143 6.00381 9.14066 6.00381 9.00858C6.00381 8.87651 5.97766 8.74574 5.92686 8.62382C5.87607 8.5019 5.80164 8.39124 5.70786 8.29823L3.40671 6.00709H16.5933L14.2921 8.29823C14.1984 8.39124 14.1239 8.5019 14.0731 8.62382C14.0223 8.74574 13.9962 8.87651 13.9962 9.00858C13.9962 9.14066 14.0223 9.27143 14.0731 9.39335C14.1239 9.51527 14.1984 9.62593 14.2921 9.71894C14.3852 9.81271 14.4958 9.88715 14.6177 9.93794C14.7396 9.98873 14.8704 10.0149 15.0025 10.0149C15.1346 10.0149 15.2653 9.98873 15.3873 9.93794C15.5092 9.88715 15.6198 9.81271 15.7128 9.71894L19.7148 5.71694C19.8059 5.62179 19.8773 5.50959 19.925 5.38678C20.025 5.1432 20.025 4.86998 19.925 4.6264Z" fill="white"/>
</svg>
